<svg width="2rem" height="2rem" viewBox="0 0 35 32" fill="none" xmlns="http://www.w3.org/2000/svg">
<path d="M32.3659 1L19.4746 10.5386L21.8719 4.91721L32.3659 1Z" fill="#E17726" stroke="#E17726" stroke-width="0.25" stroke-linecap="round" stroke-linejoin="round"/>
<path d="M2.63184 1L15.4083 10.6277L13.1259 4.9172L2.63184 1Z" fill="#E27625" stroke="#E27625" stroke-width="0.25" stroke-linecap="round" stroke-linejoin="round"/>
<path d="M27.7269 23.1178L24.2969 28.3577L31.6414 30.3799L33.7454 23.2323L27.7269 23.1178Z" fill="#E27625" stroke="#E27625" stroke-width="0.25" stroke-linecap="round" stroke-linejoin="round"/>
<path d="M1.26855 23.2323L3.35971 30.3799L10.6916 28.3577L7.27426 23.1178L1.26855 23.2323Z" fill="#E27625" stroke="#E27625" stroke-width="0.25" stroke-linecap="round" stroke-linejoin="round"/>
<path d="M10.295 14.264L8.25488 17.3418L15.5229 17.6725L15.2807 9.85083L10.295 14.264Z" fill="#E27625" stroke="#E27625" stroke-width="0.25" stroke-linecap="round" stroke-linejoin="round"/>
<path d="M24.7024 14.2655L19.6404 9.76331L19.4746 17.674L26.7426 17.3433L24.7024 14.2655Z" fill="#E27625" stroke="#E27625" stroke-width="0.25" stroke-linecap="round" stroke-linejoin="round"/>
<path d="M10.6914 28.3558L15.0904 26.2319L11.3035 23.2812L10.6914 28.3558Z" fill="#E27625" stroke="#E27625" stroke-width="0.25" stroke-linecap="round" stroke-linejoin="round"/>
<path d="M19.9102 26.2319L24.2964 28.3558L23.6971 23.2812L19.9102 26.2319Z" fill="#E27625" stroke="#E27625" stroke-width="0.25" stroke-linecap="round" stroke-linejoin="round"/>
<path d="M24.2964 28.3574L19.9102 26.2335L20.2671 29.0824L20.2289 30.2906L24.2964 28.3574Z" fill="#D5BFB2" stroke="#D5BFB2" stroke-width="0.25" stroke-linecap="round" stroke-linejoin="round"/>
<path d="M10.6914 28.3574L14.7717 30.2906L14.7462 29.0824L15.0904 26.2335L10.6914 28.3574Z" fill="#D5BFB2" stroke="#D5BFB2" stroke-width="0.25" stroke-linecap="round" stroke-linejoin="round"/>
<path d="M14.849 21.3982L11.2021 20.3299L13.7778 19.1471L14.849 21.3982Z" fill="#233447" stroke="#233447" stroke-width="0.25" stroke-linecap="round" stroke-linejoin="round"/>
<path d="M20.1514 21.3982L21.2225 19.1471L23.8109 20.3299L20.1514 21.3982Z" fill="#233447" stroke="#233447" stroke-width="0.25" stroke-linecap="round" stroke-linejoin="round"/>
<path d="M10.6907 28.3577L11.3283 23.1178L7.27344 23.2323L10.6907 28.3577Z" fill="#CC6228" stroke="#CC6228" stroke-width="0.25" stroke-linecap="round" stroke-linejoin="round"/>
<path d="M23.6719 23.1178L24.2967 28.3577L27.7267 23.2323L23.6719 23.1178Z" fill="#CC6228" stroke="#CC6228" stroke-width="0.25" stroke-linecap="round" stroke-linejoin="round"/>
<path d="M26.7426 17.3424L19.4746 17.6731L20.1504 21.3996L21.2215 19.1484L23.8099 20.3312L26.7426 17.3424Z" fill="#CC6228" stroke="#CC6228" stroke-width="0.25" stroke-linecap="round" stroke-linejoin="round"/>
<path d="M11.2004 20.3312L13.776 19.1484L14.8472 21.3996L15.5229 17.6731L8.25488 17.3424L11.2004 20.3312Z" fill="#CC6228" stroke="#CC6228" stroke-width="0.25" stroke-linecap="round" stroke-linejoin="round"/>
<path d="M8.25488 17.3424L11.3024 23.2818L11.2003 20.3312L8.25488 17.3424Z" fill="#E27525" stroke="#E27525" stroke-width="0.25" stroke-linecap="round" stroke-linejoin="round"/>
<path d="M23.8101 20.3312L23.6953 23.2818L26.7428 17.3424L23.8101 20.3312Z" fill="#E27525" stroke="#E27525" stroke-width="0.25" stroke-linecap="round" stroke-linejoin="round"/>
<path d="M15.5245 17.6727L14.8486 21.3992L15.7029 25.7997L15.8942 20.0002L15.5245 17.6727Z" fill="#E27525" stroke="#E27525" stroke-width="0.25" stroke-linecap="round" stroke-linejoin="round"/>
<path d="M19.4762 17.6727L19.1191 19.9875L19.2977 25.7997L20.152 21.3992L19.4762 17.6727Z" fill="#E27525" stroke="#E27525" stroke-width="0.25" stroke-linecap="round" stroke-linejoin="round"/>
<path d="M20.1522 21.3998L19.2979 25.8002L19.9099 26.2327L23.697 23.282L23.8117 20.3314L20.1522 21.3998Z" fill="#F5841F" stroke="#F5841F" stroke-width="0.25" stroke-linecap="round" stroke-linejoin="round"/>
<path d="M11.2021 20.3314L11.3042 23.282L15.0912 26.2327L15.7033 25.8002L14.849 21.3998L11.2021 20.3314Z" fill="#F5841F" stroke="#F5841F" stroke-width="0.25" stroke-linecap="round" stroke-linejoin="round"/>
<path d="M20.2292 30.2901L20.2673 29.0819L19.9359 28.802H15.065L14.7462 29.0819L14.7717 30.2901L10.6914 28.3569L12.1195 29.527L15.014 31.5238H19.9741L22.8813 29.527L24.2966 28.3569L20.2292 30.2901Z" fill="#C0AC9D" stroke="#C0AC9D" stroke-width="0.25" stroke-linecap="round" stroke-linejoin="round"/>
<path d="M19.9112 26.233L19.2991 25.8007H15.7034L15.0914 26.233L14.7471 29.082L15.0659 28.8021H19.9367L20.2683 29.082L19.9112 26.233Z" fill="#161616" stroke="#161616" stroke-width="0.25" stroke-linecap="round" stroke-linejoin="round"/>
<path d="M32.9161 11.1618L34 5.8965L32.3678 1L19.9102 10.2207L24.7044 14.265L31.4752 16.2364L32.9671 14.494L32.3169 14.0234L33.3496 13.0823L32.5591 12.4718L33.5919 11.6833L32.9161 11.1618Z" fill="#763E1A" stroke="#763E1A" stroke-width="0.25" stroke-linecap="round" stroke-linejoin="round"/>
<path d="M1 5.8965L2.09658 11.1618L1.39528 11.6833L2.44086 12.4718L1.6503 13.0823L2.68313 14.0234L2.03283 14.494L3.52469 16.2364L10.2955 14.265L15.0898 10.2207L2.63213 1L1 5.8965Z" fill="#763E1A" stroke="#763E1A" stroke-width="0.25" stroke-linecap="round" stroke-linejoin="round"/>
<path d="M31.4734 16.236L24.7026 14.2648L26.7428 17.3426L23.6953 23.2819L27.7246 23.2311H33.7431L31.4734 16.236Z" fill="#F5841F" stroke="#F5841F" stroke-width="0.25" stroke-linecap="round" stroke-linejoin="round"/>
<path d="M10.2962 14.2648L3.52547 16.236L1.26855 23.2311H7.27426L11.3035 23.2819L8.25609 17.3426L10.2962 14.2648Z" fill="#F5841F" stroke="#F5841F" stroke-width="0.25" stroke-linecap="round" stroke-linejoin="round"/>
<path d="M19.476 17.6742L19.9095 10.2213L21.8731 4.91785H13.126L15.0896 10.2213L15.5231 17.6742L15.6889 20.0143L15.7017 25.8011H19.2974L19.3102 20.0143L19.476 17.6742Z" fill="#F5841F" stroke="#F5841F" stroke-width="0.25" stroke-linecap="round" stroke-linejoin="round"/>
</svg>
